<svg width="40" height="36" viewBox="0 0 40 36" fill="none" xmlns="http://www.w3.org/2000/svg">
<path d="M11.7102 7.29765L14.6223 0.426758L29.1281 35.5742H23.4584L11.7102 7.29765Z" fill="white"/>
<path d="M3.11808 28.207C2.07872 30.6602 1.03936 33.114 0 35.5671C5.12373 35.5623 10.2475 35.5574 15.3718 35.5526C13.6228 35.2325 10.8043 34.4843 7.86436 32.5517C5.63163 31.0848 4.09584 29.439 3.11869 28.207H3.11808Z" fill="white"/>
<path d="M38.1314 28.2783H40.0006V35.5738H35.2078V33.3495C35.7858 32.5384 36.3837 31.6156 36.9659 30.5787C37.4146 29.7785 37.8005 29.0073 38.1314 28.2789V28.2783Z" fill="white"/>
<path d="M38.1308 7.72612H39.9994V0.430664H35.2078C35.2096 1.1898 35.2121 1.94894 35.2139 2.70868C35.7864 3.43762 36.4 4.31876 36.9852 5.35631C37.4599 6.19818 37.8343 6.99839 38.1308 7.72612Z" fill="white"/>
<path d="M33.8924 12.8965H35.2144V23.2647H33.9305C33.3767 22.4524 32.2008 20.9662 30.1747 19.8809C28.6038 19.0396 27.1496 18.7757 26.2395 18.6839H24.8444V17.5528H26.2014C27.1387 17.4241 28.5586 17.1113 30.0895 16.2755C32.0879 15.1848 33.2897 13.7414 33.8924 12.8965Z" fill="white"/>
</svg>
