<svg width="1250" height="488" viewBox="0 0 1250 488" fill="none" xmlns="http://www.w3.org/2000/svg">
<g clip-path="url(#clip0_238_83751)">
<rect width="1250" height="488" transform="matrix(-1 0 0 1 1250 0)" fill="black"/>
<g filter="url(#filter0_f_238_83751)">
<ellipse cx="368.395" cy="357.133" rx="368.395" ry="357.133" transform="matrix(-1 0 0 1 1338.64 -136.174)" fill="url(#paint0_linear_238_83751)"/>
</g>
<g filter="url(#filter1_f_238_83751)">
<ellipse cx="265.617" cy="257.203" rx="265.617" ry="257.203" transform="matrix(-1 0 0 1 1191.08 -21.4873)" fill="#8C8C8C"/>
</g>
<g filter="url(#filter2_f_238_83751)">
<ellipse cx="265.617" cy="257.203" rx="265.617" ry="257.203" transform="matrix(-1 0 0 1 1314.56 235.845)" fill="#4D4D4D"/>
</g>
<g filter="url(#filter3_f_238_83751)">
<path d="M545.054 762.936C983.805 647.07 597.177 100.376 1324.82 68.8633C1588.7 361.534 1435.07 738.342 1039.19 762.936H545.054Z" fill="black"/>
</g>
<g filter="url(#filter4_f_238_83751)">
<path d="M861.155 57.359C868.09 53.8271 876.114 48.2493 884.118 46.9477C884.276 43.8108 885.717 41.0383 885.717 37.6376C885.717 34.2128 886.928 28.2174 885.314 25.3117C883.302 21.6904 882.462 15.938 881.504 11.8205C879.506 3.22909 873.154 -5.54876 867.161 -11.7555C859.248 -19.951 850.457 -28.5311 839.731 -32.8216C817.474 -41.7244 793.909 -43.5372 770.302 -44.8785C746.71 -46.219 715.937 -47.9499 701.95 -24.933C695.907 -14.9891 694.316 -3.62259 693.299 7.78656C691.286 30.3784 688.614 52.8945 684.425 75.1979C678.619 106.108 672.058 136.69 661.431 166.365C656.098 181.258 648.523 196.29 648.523 212.396C648.523 225.384 650.161 235.639 657.218 246.774C663.196 256.206 671.194 266.126 682.811 268.109C694.017 270.022 706.747 268.22 715.307 260.489C721.431 254.957 723.402 245.321 724.719 237.541C726.628 226.262 727.903 214.663 730.904 203.611C734.604 189.99 741.186 177.291 746.951 164.482C751.882 153.522 756.421 141.515 763.265 131.583C778.718 109.159 803.907 95.6765 825.612 80.173L825.715 80.0998C837.154 71.9285 848.597 63.7552 861.155 57.359Z" fill="#9C9EA7" fill-opacity="0.8"/>
</g>
<g filter="url(#filter5_f_238_83751)">
<path d="M905.91 -5.12886C922.237 -11.8778 941.396 -23.0616 959.744 -24.571C960.665 -31.6422 964.424 -37.6584 965.035 -45.355C965.649 -53.1061 969.466 -66.4577 966.334 -73.3238C962.431 -81.8807 961.562 -95.0507 960.134 -104.541C957.154 -124.344 944.355 -145.351 931.907 -160.474C915.471 -180.442 897.115 -201.439 873.612 -213.074C824.841 -237.218 771.839 -245.55 718.658 -252.823C665.509 -260.091 596.179 -269.531 560.394 -219.948C544.934 -198.527 539.294 -173.088 534.945 -147.449C526.334 -96.679 516.245 -46.1993 502.762 3.52687C484.076 72.4416 463.739 140.478 434.364 205.732C419.621 238.483 399.78 271.145 396.889 307.596C394.558 336.99 396.424 360.494 410.397 386.963C422.233 409.383 438.552 433.268 464.485 439.842C489.5 446.183 518.633 444.39 539.391 428.429C554.244 417.008 560.435 395.553 564.811 378.18C571.155 352.996 576.122 326.973 584.898 302.499C595.716 272.334 612.89 244.777 628.234 216.82C641.362 192.901 653.789 166.541 671.06 145.29C710.054 97.311 769.478 71.3186 821.38 40.1259L821.625 39.9785C848.98 23.5379 876.342 7.09337 905.91 -5.12886Z" fill="black"/>
</g>
<g filter="url(#filter6_f_238_83751)">
<circle cx="103.554" cy="103.554" r="103.554" transform="matrix(-1 0 0 1 1372.19 -113.393)" fill="black" fill-opacity="0.8"/>
</g>
<g filter="url(#filter7_f_238_83751)">
<circle cx="229.502" cy="229.502" r="229.502" transform="matrix(-1 0 0 1 1327.92 53.8486)" fill="url(#paint1_linear_238_83751)"/>
</g>
<g filter="url(#filter8_f_238_83751)">
<ellipse cx="84.6557" cy="229.502" rx="84.6557" ry="229.502" transform="matrix(-0.771994 -0.63563 -0.63563 0.771994 1479.89 448.313)" fill="#464646" fill-opacity="0.7"/>
</g>
<g filter="url(#filter9_f_238_83751)">
<circle cx="180.314" cy="180.314" r="180.314" transform="matrix(-1 0 0 1 1207.54 71.9707)" fill="black" fill-opacity="0.8"/>
</g>
<g filter="url(#filter10_f_238_83751)">
<path d="M872.066 -233.495C622.084 -268.903 303.772 -74.323 440.636 389.294C397.311 -0.799425 729.542 -110.285 928.857 -122.856L872.066 -233.495Z" fill="#343434"/>
</g>
</g>
<defs>
<filter id="filter0_f_238_83751" x="342.965" y="-395.06" width="1254.56" height="1232.04" filterUnits="userSpaceOnUse" color-interpolation-filters="sRGB">
<feFlood flood-opacity="0" result="BackgroundImageFix"/>
<feBlend mode="normal" in="SourceGraphic" in2="BackgroundImageFix" result="shape"/>
<feGaussianBlur stdDeviation="129.443" result="effect1_foregroundBlur_238_83751"/>
</filter>
<filter id="filter1_f_238_83751" x="400.955" y="-280.373" width="1049.01" height="1032.18" filterUnits="userSpaceOnUse" color-interpolation-filters="sRGB">
<feFlood flood-opacity="0" result="BackgroundImageFix"/>
<feBlend mode="normal" in="SourceGraphic" in2="BackgroundImageFix" result="shape"/>
<feGaussianBlur stdDeviation="129.443" result="effect1_foregroundBlur_238_83751"/>
</filter>
<filter id="filter2_f_238_83751" x="589.165" y="41.6803" width="919.563" height="902.735" filterUnits="userSpaceOnUse" color-interpolation-filters="sRGB">
<feFlood flood-opacity="0" result="BackgroundImageFix"/>
<feBlend mode="normal" in="SourceGraphic" in2="BackgroundImageFix" result="shape"/>
<feGaussianBlur stdDeviation="97.0822" result="effect1_foregroundBlur_238_83751"/>
</filter>
<filter id="filter3_f_238_83751" x="286.168" y="-190.023" width="1428.79" height="1211.85" filterUnits="userSpaceOnUse" color-interpolation-filters="sRGB">
<feFlood flood-opacity="0" result="BackgroundImageFix"/>
<feBlend mode="normal" in="SourceGraphic" in2="BackgroundImageFix" result="shape"/>
<feGaussianBlur stdDeviation="129.443" result="effect1_foregroundBlur_238_83751"/>
</filter>
<filter id="filter4_f_238_83751" x="493.191" y="-200.896" width="548.294" height="625.041" filterUnits="userSpaceOnUse" color-interpolation-filters="sRGB">
<feFlood flood-opacity="0" result="BackgroundImageFix"/>
<feBlend mode="normal" in="SourceGraphic" in2="BackgroundImageFix" result="shape"/>
<feGaussianBlur stdDeviation="77.6658" result="effect1_foregroundBlur_238_83751"/>
</filter>
<filter id="filter5_f_238_83751" x="188.934" y="-465.8" width="985.728" height="1116.16" filterUnits="userSpaceOnUse" color-interpolation-filters="sRGB">
<feFlood flood-opacity="0" result="BackgroundImageFix"/>
<feBlend mode="normal" in="SourceGraphic" in2="BackgroundImageFix" result="shape"/>
<feGaussianBlur stdDeviation="103.554" result="effect1_foregroundBlur_238_83751"/>
</filter>
<filter id="filter6_f_238_83751" x="1035.64" y="-242.836" width="465.995" height="465.994" filterUnits="userSpaceOnUse" color-interpolation-filters="sRGB">
<feFlood flood-opacity="0" result="BackgroundImageFix"/>
<feBlend mode="normal" in="SourceGraphic" in2="BackgroundImageFix" result="shape"/>
<feGaussianBlur stdDeviation="64.7215" result="effect1_foregroundBlur_238_83751"/>
</filter>
<filter id="filter7_f_238_83751" x="739.477" y="-75.5943" width="717.891" height="717.891" filterUnits="userSpaceOnUse" color-interpolation-filters="sRGB">
<feFlood flood-opacity="0" result="BackgroundImageFix"/>
<feBlend mode="normal" in="SourceGraphic" in2="BackgroundImageFix" result="shape"/>
<feGaussianBlur stdDeviation="64.7215" result="effect1_foregroundBlur_238_83751"/>
</filter>
<filter id="filter8_f_238_83751" x="901.661" y="179.355" width="733.994" height="784.646" filterUnits="userSpaceOnUse" color-interpolation-filters="sRGB">
<feFlood flood-opacity="0" result="BackgroundImageFix"/>
<feBlend mode="normal" in="SourceGraphic" in2="BackgroundImageFix" result="shape"/>
<feGaussianBlur stdDeviation="103.554" result="effect1_foregroundBlur_238_83751"/>
</filter>
<filter id="filter9_f_238_83751" x="717.472" y="-57.4723" width="619.514" height="619.514" filterUnits="userSpaceOnUse" color-interpolation-filters="sRGB">
<feFlood flood-opacity="0" result="BackgroundImageFix"/>
<feBlend mode="normal" in="SourceGraphic" in2="BackgroundImageFix" result="shape"/>
<feGaussianBlur stdDeviation="64.7215" result="effect1_foregroundBlur_238_83751"/>
</filter>
<filter id="filter10_f_238_83751" x="278.269" y="-367.008" width="780.031" height="885.745" filterUnits="userSpaceOnUse" color-interpolation-filters="sRGB">
<feFlood flood-opacity="0" result="BackgroundImageFix"/>
<feBlend mode="normal" in="SourceGraphic" in2="BackgroundImageFix" result="shape"/>
<feGaussianBlur stdDeviation="64.7215" result="effect1_foregroundBlur_238_83751"/>
</filter>
<linearGradient id="paint0_linear_238_83751" x1="584.536" y1="280.503" x2="418.72" y2="609.288" gradientUnits="userSpaceOnUse">
<stop stop-color="#575757"/>
<stop offset="1" stop-color="#1F1F1F" stop-opacity="0"/>
</linearGradient>
<linearGradient id="paint1_linear_238_83751" x1="340.435" y1="1128.61" x2="170.088" y2="161.286" gradientUnits="userSpaceOnUse">
<stop stop-color="#2E025B"/>
<stop offset="1" stop-color="#2E025B" stop-opacity="0"/>
</linearGradient>
<clipPath id="clip0_238_83751">
<rect width="1250" height="488" fill="white" transform="matrix(-1 0 0 1 1250 0)"/>
</clipPath>
</defs>
</svg>
