<svg viewBox="0 0 51 46" fill="none" xmlns="http://www.w3.org/2000/svg">
<path d="M14.9304 9.09383L18.6434 0.296875L37.1382 45.2969H29.9094L14.9304 9.09383Z" fill="white"/>
<path d="M3.97556 35.8643C2.65037 39.0051 1.32519 42.1467 0 45.2875C6.53275 45.2813 13.0655 45.2751 19.599 45.269C17.3691 44.8592 13.7755 43.9011 10.0271 41.4268C7.18033 39.5487 5.2222 37.4416 3.97633 35.8643H3.97556Z" fill="white"/>
<path d="M48.6175 35.9561H51.0007V45.2966H44.8899V42.4488C45.6268 41.4104 46.3891 40.2289 47.1314 38.9013C47.7035 37.8767 48.1955 36.8893 48.6175 35.9568V35.9561Z" fill="white"/>
<path d="M48.6167 9.64229H50.9991V0.301758H44.8899C44.8922 1.2737 44.8953 2.24564 44.8976 3.21835C45.6276 4.15163 46.4099 5.27976 47.156 6.60816C47.7613 7.68603 48.2387 8.71055 48.6167 9.64229Z" fill="white"/>
<path d="M43.2129 16.2627H44.8985V29.5374H43.2614C42.5553 28.4974 41.0561 26.5945 38.4727 25.205C36.4699 24.1279 34.6158 23.79 33.4554 23.6725H31.6766V22.2242H33.4068C34.6019 22.0595 36.4122 21.659 38.3642 20.5889C40.9121 19.1924 42.4444 17.3444 43.2129 16.2627Z" fill="white"/>
</svg>
