<?xml version="1.0" standalone="no"?>
<!DOCTYPE svg PUBLIC "-//W3C//DTD SVG 20010904//EN"
 "http://www.w3.org/TR/2001/REC-SVG-20010904/DTD/svg10.dtd">
<svg version="1.0" xmlns="http://www.w3.org/2000/svg"
 width="13452.000000pt" height="13764.000000pt" viewBox="0 0 13452.000000 13764.000000"
 preserveAspectRatio="xMidYMid meet">

<g transform="translate(0.000000,13764.000000) scale(0.100000,-0.100000)"
fill="#000000" stroke="none">
<path d="M66555 93319 c-4 -11 -49 -109 -99 -217 -51 -108 -125 -264 -163
-347 -98 -207 -217 -462 -270 -575 -25 -52 -58 -122 -73 -155 -37 -80 -76
-163 -214 -457 -64 -137 -168 -359 -232 -495 -64 -137 -216 -462 -339 -723
-123 -261 -260 -554 -304 -650 l-82 -174 122 -276 c67 -151 197 -446 289 -655
92 -209 314 -711 493 -1115 336 -760 596 -1351 808 -1835 141 -324 206 -472
464 -1055 103 -234 223 -504 265 -600 42 -96 137 -310 210 -475 73 -165 192
-435 265 -600 212 -480 737 -1667 860 -1945 104 -235 231 -523 540 -1220 241
-544 645 -1457 1228 -2770 382 -862 2131 -4797 2500 -5625 622 -1398 1171
-2629 1542 -3460 103 -231 243 -544 310 -695 68 -151 181 -405 253 -565 71
-159 204 -456 294 -660 91 -203 252 -563 358 -800 106 -236 267 -596 357 -800
91 -203 223 -498 293 -655 297 -663 438 -979 615 -1375 103 -231 215 -483 250
-560 83 -185 415 -926 600 -1340 81 -181 187 -418 235 -525 48 -107 181 -404
295 -660 114 -256 286 -640 383 -855 96 -214 250 -559 342 -765 92 -206 236
-528 320 -715 84 -187 190 -423 235 -525 45 -102 151 -338 235 -525 252 -562
360 -805 405 -905 23 -52 82 -183 130 -290 48 -107 115 -258 150 -335 34 -77
169 -378 300 -670 244 -545 442 -986 665 -1485 70 -157 166 -370 213 -475 47
-104 125 -280 175 -390 49 -110 176 -393 282 -630 106 -236 212 -473 235 -525
89 -199 938 -2094 1150 -2565 84 -187 201 -448 260 -580 59 -132 176 -393 260
-580 192 -428 502 -1119 697 -1555 83 -184 176 -391 207 -460 l57 -125 3008
-3 c2862 -2 3008 -1 3003 15 -2 10 -224 506 -492 1103 -487 1084 -879 1958
-1048 2335 -49 110 -128 286 -174 390 -92 204 -178 397 -278 620 -34 77 -160
358 -280 625 -359 800 -477 1063 -695 1550 -114 256 -258 578 -320 715 -62
138 -198 441 -302 675 -105 234 -249 556 -320 715 -207 462 -286 638 -446 995
-82 184 -188 421 -235 525 -46 105 -132 296 -190 425 -58 129 -145 325 -195
435 -49 110 -156 349 -237 530 -81 182 -205 458 -275 615 -70 157 -194 434
-275 615 -81 182 -204 456 -273 610 -68 154 -182 408 -252 565 -70 157 -176
393 -235 525 -59 132 -144 323 -190 425 -45 102 -169 379 -275 615 -106 237
-247 554 -315 705 -67 151 -162 363 -210 470 -48 107 -162 362 -252 565 -187
419 -313 701 -501 1120 -201 451 -600 1345 -1167 2615 -89 201 -229 514 -310
695 -81 182 -222 497 -312 700 -91 204 -193 433 -228 510 -118 264 -719 1613
-1070 2400 -123 275 -279 626 -348 780 -68 154 -272 611 -452 1015 -180 404
-447 1003 -592 1330 -1696 3807 -4437 9977 -5780 13010 -96 217 -271 611 -388
875 -230 519 -461 1041 -640 1445 -62 140 -184 415 -270 610 -86 195 -245 553
-352 795 -107 242 -279 631 -383 865 -103 234 -301 682 -440 995 -139 314
-341 770 -449 1015 -108 245 -242 547 -297 672 l-99 227 -1267 1 -1267 0 -6
-21z"/>
<path d="M64170 88227 c-145 -309 -288 -614 -318 -677 -79 -168 -478 -1018
-602 -1285 -59 -126 -196 -419 -305 -650 -192 -408 -453 -966 -677 -1445 -61
-129 -161 -343 -223 -475 -62 -132 -163 -348 -225 -480 -62 -132 -181 -386
-265 -565 -163 -347 -435 -928 -675 -1440 -270 -575 -452 -964 -493 -1050 -21
-47 -70 -150 -107 -230 -37 -80 -105 -224 -150 -320 -45 -96 -115 -245 -155
-330 -40 -85 -92 -195 -115 -245 -23 -49 -55 -117 -70 -150 -15 -33 -132 -283
-260 -555 -313 -666 -535 -1141 -830 -1770 -179 -382 -608 -1297 -680 -1450
-106 -225 -145 -308 -267 -570 -58 -124 -142 -301 -185 -395 -44 -93 -111
-235 -148 -315 -37 -80 -155 -332 -262 -560 -108 -228 -261 -554 -341 -725
-80 -170 -166 -355 -192 -410 -26 -55 -60 -127 -75 -160 -51 -111 -256 -548
-415 -885 -40 -85 -84 -180 -98 -210 -14 -30 -48 -104 -77 -165 -29 -60 -203
-432 -387 -825 -185 -393 -421 -897 -525 -1120 -105 -223 -239 -508 -298 -635
-94 -202 -488 -1042 -828 -1765 -63 -135 -129 -276 -147 -315 -18 -38 -70
-149 -115 -245 -45 -96 -129 -274 -185 -395 -57 -121 -124 -265 -150 -320
-156 -333 -366 -780 -523 -1115 -99 -212 -206 -439 -237 -505 -31 -66 -117
-248 -190 -405 -73 -157 -157 -334 -185 -395 -29 -60 -65 -137 -80 -170 -15
-33 -43 -94 -63 -135 -139 -298 -353 -755 -452 -965 -64 -137 -150 -320 -190
-405 -40 -85 -144 -306 -230 -490 -87 -184 -170 -362 -185 -395 -22 -49 -306
-653 -527 -1125 -97 -206 -113 -240 -185 -395 -42 -88 -178 -378 -303 -645
-264 -564 -331 -705 -490 -1045 -64 -137 -150 -320 -190 -405 -40 -85 -157
-335 -260 -555 -297 -634 -505 -1078 -713 -1520 -44 -93 -95 -204 -115 -245
-31 -69 -158 -340 -452 -965 -62 -132 -332 -708 -600 -1280 -268 -572 -556
-1186 -640 -1365 -84 -179 -237 -505 -340 -725 -176 -375 -246 -524 -635
-1355 -84 -179 -173 -368 -197 -420 -25 -52 -58 -122 -73 -155 -15 -33 -62
-134 -105 -225 -226 -481 -387 -823 -418 -890 -19 -41 -87 -187 -152 -325 -64
-137 -130 -277 -145 -310 -15 -33 -83 -177 -150 -320 -368 -783 -720 -1536
-720 -1541 0 -2 549 -4 1221 -4 l1220 0 61 128 c33 70 91 192 128 272 37 80
91 195 120 255 29 61 65 137 80 170 15 33 103 220 195 415 92 195 182 387 200
425 18 39 74 158 125 265 106 223 576 1223 810 1720 86 184 283 603 437 930
155 327 370 784 478 1015 109 231 217 461 240 510 24 50 97 205 163 345 65
140 393 836 727 1545 334 710 622 1322 640 1360 25 54 976 2074 1210 2570 233
496 1016 2158 1045 2220 20 44 73 157 117 250 131 277 749 1590 833 1770 21
44 93 197 160 340 68 143 141 298 163 345 22 47 96 204 164 350 400 846 827
1754 888 1885 34 73 74 157 205 435 118 250 314 666 395 840 40 85 93 198 118
250 24 52 151 322 282 600 131 278 260 552 287 610 28 58 63 132 78 165 39 85
68 146 525 1115 224 476 497 1056 607 1290 110 234 289 614 398 845 109 231
323 686 475 1010 276 587 325 691 409 868 24 50 185 394 359 762 173 369 427
909 565 1200 209 443 599 1273 755 1605 22 47 114 243 205 435 180 383 204
434 315 670 41 88 96 205 122 260 48 101 90 191 163 345 65 140 1247 2650
1339 2845 47 99 98 207 113 240 15 33 66 141 113 240 256 542 503 1067 527
1121 15 33 142 301 280 595 139 294 359 761 490 1039 131 278 309 658 397 845
89 187 249 529 358 760 109 231 220 467 247 525 28 58 81 170 118 250 37 80
91 195 120 255 29 61 83 175 120 255 37 80 91 193 118 252 l50 106 -355 804
c-195 441 -394 893 -442 1003 -183 415 -424 960 -426 962 -1 2 -120 -250 -265
-560z"/>
<path d="M66150 68362 c-118 -251 -249 -530 -292 -620 -43 -90 -78 -165 -78
-166 0 -2 -33 -73 -74 -157 -40 -85 -100 -212 -134 -284 -33 -71 -86 -184
-117 -250 -31 -66 -85 -181 -120 -255 -35 -74 -89 -189 -120 -255 -31 -66
-324 -687 -650 -1380 -326 -693 -671 -1424 -765 -1625 -95 -201 -187 -396
-205 -435 -33 -71 -366 -780 -522 -1110 -47 -99 -98 -207 -113 -240 -15 -33
-141 -301 -280 -595 -139 -294 -339 -719 -445 -945 -106 -225 -288 -612 -405
-860 -116 -247 -262 -556 -322 -685 -61 -129 -137 -291 -169 -359 -33 -68 -59
-125 -59 -126 0 -2 -25 -54 -55 -117 -30 -62 -55 -119 -55 -125 0 -10 1020
-13 5065 -13 2786 0 5065 2 5065 5 0 3 -166 378 -369 833 -203 455 -396 888
-429 962 -33 74 -144 324 -247 555 -286 642 -455 1020 -660 1480 -599 1343
-812 1821 -1130 2535 -426 957 -660 1482 -762 1710 -58 129 -207 462 -330 740
-124 278 -313 701 -419 940 -107 239 -281 630 -387 867 -105 238 -194 433
-197 433 -3 0 -102 -206 -220 -458z"/>
</g>
</svg>
